<?xml version="1.0" encoding="UTF-8"?>
<svg xmlns="http://www.w3.org/2000/svg" xmlns:xlink="http://www.w3.org/1999/xlink" width="95px" height="95px" viewBox="0 0 95 95" version="1.1">
<g id="surface1">
<path style="fill-rule:evenodd;fill:rgb(0%,0%,0%);fill-opacity:1;stroke-width:1.5;stroke-linecap:butt;stroke-linejoin:round;stroke:rgb(0%,0%,0%);stroke-opacity:1;stroke-miterlimit:4;" d="M 9 35.999507 C 12.389803 35.029934 19.110197 36.430633 22.5 33.999301 C 25.889803 36.430633 32.610197 35.029934 36 35.999507 C 36 35.999507 37.650493 36.539803 38.999383 37.999712 C 38.320312 38.969285 37.35074 38.989638 36 38.499301 C 32.610197 37.529729 25.889803 38.960033 22.5 37.500123 C 19.110197 38.960033 12.389803 37.529729 9 38.499301 C 7.64926 38.989638 6.679688 38.969285 6.000617 37.999712 C 7.349507 36.539803 9 35.999507 9 35.999507 Z M 9 35.999507 " transform="matrix(2.111111,0,0,2.111111,0,1.266667)"/>
<path style="fill-rule:evenodd;fill:rgb(0%,0%,0%);fill-opacity:1;stroke-width:1.5;stroke-linecap:butt;stroke-linejoin:round;stroke:rgb(0%,0%,0%);stroke-opacity:1;stroke-miterlimit:4;" d="M 15.000617 31.999095 C 17.500411 34.50074 27.499589 34.50074 29.999383 31.999095 C 30.500822 30.500329 29.999383 30.00074 29.999383 30.00074 C 29.999383 27.499095 27.499589 26.000329 27.499589 26.000329 C 33.000617 24.499712 33.500206 14.500535 22.5 10.500123 C 11.499794 14.500535 11.999383 24.499712 17.500411 26.000329 C 17.500411 26.000329 15.000617 27.499095 15.000617 30.00074 C 15.000617 30.00074 14.499178 30.500329 15.000617 31.999095 Z M 15.000617 31.999095 " transform="matrix(2.111111,0,0,2.111111,0,1.266667)"/>
<path style="fill-rule:evenodd;fill:rgb(0%,0%,0%);fill-opacity:1;stroke-width:1.5;stroke-linecap:butt;stroke-linejoin:round;stroke:rgb(0%,0%,0%);stroke-opacity:1;stroke-miterlimit:4;" d="M 24.999794 8.000329 C 24.999794 9.380674 23.880345 10.500123 22.5 10.500123 C 21.119655 10.500123 20.000206 9.380674 20.000206 8.000329 C 20.000206 6.619984 21.119655 5.500535 22.5 5.500535 C 23.880345 5.500535 24.999794 6.619984 24.999794 8.000329 Z M 24.999794 8.000329 " transform="matrix(2.111111,0,0,2.111111,0,1.266667)"/>
<path style="fill:none;stroke-width:1.5;stroke-linecap:round;stroke-linejoin:miter;stroke:rgb(100%,100%,100%);stroke-opacity:1;stroke-miterlimit:4;" d="M 17.500411 26.000329 L 27.499589 26.000329 M 15.000617 30.00074 L 29.999383 30.00074 M 22.5 15.499712 L 22.5 20.499301 M 20.000206 17.999507 L 24.999794 17.999507 " transform="matrix(2.111111,0,0,2.111111,0,1.266667)"/>
</g>
</svg>
