<?xml version="1.0" encoding="UTF-8"?>
<svg xmlns="http://www.w3.org/2000/svg" xmlns:xlink="http://www.w3.org/1999/xlink" width="95px" height="95px" viewBox="0 0 95 95" version="1.1">
<g id="surface1">
<path style="fill:none;stroke-width:1.5;stroke-linecap:round;stroke-linejoin:miter;stroke:rgb(0%,0%,0%);stroke-opacity:1;stroke-miterlimit:4;" d="M 22.5 11.629317 L 22.5 6.000617 " transform="matrix(2.111111,0,0,2.111111,0,0)"/>
<path style="fill:none;stroke-width:1.5;stroke-linecap:round;stroke-linejoin:miter;stroke:rgb(0%,0%,0%);stroke-opacity:1;stroke-miterlimit:4;" d="M 20.000206 8.000822 L 24.999794 8.000822 " transform="matrix(2.111111,0,0,2.111111,0,0)"/>
<path style="fill-rule:evenodd;fill:rgb(100%,100%,100%);fill-opacity:1;stroke-width:1.5;stroke-linecap:butt;stroke-linejoin:miter;stroke:rgb(0%,0%,0%);stroke-opacity:1;stroke-miterlimit:4;" d="M 22.5 24.999794 C 22.5 24.999794 27 17.500411 25.499383 14.499178 C 25.499383 14.499178 24.500206 11.999383 22.5 11.999383 C 20.499794 11.999383 19.500617 14.499178 19.500617 14.499178 C 18 17.500411 22.5 24.999794 22.5 24.999794 " transform="matrix(2.111111,0,0,2.111111,0,0)"/>
<path style="fill-rule:evenodd;fill:rgb(100%,100%,100%);fill-opacity:1;stroke-width:1.5;stroke-linecap:round;stroke-linejoin:round;stroke:rgb(0%,0%,0%);stroke-opacity:1;stroke-miterlimit:4;" d="M 12.500822 36.999178 C 18 40.5 27 40.5 32.499178 36.999178 L 32.499178 29.999383 C 32.499178 29.999383 41.499178 25.499383 38.499794 19.500617 C 34.499383 13.000411 24.999794 15.999794 22.5 23.499178 L 22.5 27 L 22.5 23.499178 C 20.000206 15.999794 10.500617 13.000411 6.500206 19.500617 C 3.500822 25.499383 12.500822 29.999383 12.500822 29.999383 L 12.500822 36.999178 " transform="matrix(2.111111,0,0,2.111111,0,0)"/>
<path style="fill:none;stroke-width:1.5;stroke-linecap:round;stroke-linejoin:round;stroke:rgb(0%,0%,0%);stroke-opacity:1;stroke-miterlimit:4;" d="M 12.500822 29.999383 C 18 27 27 27 32.499178 29.999383 " transform="matrix(2.111111,0,0,2.111111,0,0)"/>
<path style="fill:none;stroke-width:1.5;stroke-linecap:round;stroke-linejoin:round;stroke:rgb(0%,0%,0%);stroke-opacity:1;stroke-miterlimit:4;" d="M 12.500822 33.500206 C 18 30.500822 27 30.500822 32.499178 33.500206 " transform="matrix(2.111111,0,0,2.111111,0,0)"/>
<path style="fill:none;stroke-width:1.5;stroke-linecap:round;stroke-linejoin:round;stroke:rgb(0%,0%,0%);stroke-opacity:1;stroke-miterlimit:4;" d="M 12.500822 36.999178 C 18 33.999794 27 33.999794 32.499178 36.999178 " transform="matrix(2.111111,0,0,2.111111,0,0)"/>
</g>
</svg>
