<?xml version="1.0" encoding="UTF-8"?>
<svg xmlns="http://www.w3.org/2000/svg" xmlns:xlink="http://www.w3.org/1999/xlink" width="95px" height="95px" viewBox="0 0 95 95" version="1.1">
<g id="surface1">
<path style="fill-rule:evenodd;fill:rgb(100%,100%,100%);fill-opacity:1;stroke-width:1.5;stroke-linecap:round;stroke-linejoin:round;stroke:rgb(0%,0%,0%);stroke-opacity:1;stroke-miterlimit:4;" d="M 22.000411 10.000781 C 32.499178 10.999959 38.499794 17.999753 38.000206 38.999137 L 15.000617 38.999137 C 15.000617 29.999137 24.999794 32.500781 22.999589 17.999753 " transform="matrix(2.111111,0,0,2.111111,0,0.633333)"/>
<path style="fill-rule:evenodd;fill:rgb(100%,100%,100%);fill-opacity:1;stroke-width:1.5;stroke-linecap:round;stroke-linejoin:round;stroke:rgb(0%,0%,0%);stroke-opacity:1;stroke-miterlimit:4;" d="M 24.000617 17.999753 C 24.379934 20.910321 18.44963 25.369613 15.999794 26.999753 C 13.000411 28.999959 13.179893 31.340625 11.000206 31.000164 C 9.95847 30.060197 12.410156 27.960074 11.000206 28.000781 C 9.999178 28.000781 11.190789 29.2294 9.999178 29.999137 C 9 29.999137 5.996916 31.000164 6.000617 26.000576 C 6.000617 24.00037 11.999383 13.999342 11.999383 13.999342 C 11.999383 13.999342 13.890419 12.100905 13.999589 10.50037 C 13.270559 9.506743 13.5 8.500164 13.5 7.499137 C 14.499178 6.499959 16.499383 10.000781 16.499383 10.000781 L 18.499589 10.000781 C 18.499589 10.000781 19.280428 8.007977 20.999383 6.999548 C 22.000411 6.999548 22.000411 10.000781 22.000411 10.000781 " transform="matrix(2.111111,0,0,2.111111,0,0.633333)"/>
<path style="fill-rule:evenodd;fill:rgb(0%,0%,0%);fill-opacity:1;stroke-width:1.5;stroke-linecap:round;stroke-linejoin:round;stroke:rgb(0%,0%,0%);stroke-opacity:1;stroke-miterlimit:4;" d="M 9.499589 25.499137 C 9.499589 25.776686 9.275699 26.000576 9 26.000576 C 8.724301 26.000576 8.500411 25.776686 8.500411 25.499137 C 8.500411 25.223437 8.724301 24.999548 9 24.999548 C 9.275699 24.999548 9.499589 25.223437 9.499589 25.499137 Z M 9.499589 25.499137 " transform="matrix(2.111111,0,0,2.111111,0,0.633333)"/>
<path style="fill-rule:evenodd;fill:rgb(0%,0%,0%);fill-opacity:1;stroke-width:1.5;stroke-linecap:round;stroke-linejoin:round;stroke:rgb(0%,0%,0%);stroke-opacity:1;stroke-miterlimit:4;" d="M 14.999144 15.500209 C 15.000777 16.328282 14.775874 17.00084 14.499767 17.000007 C 14.22366 16.999175 14.001022 16.328616 13.99939 15.500542 C 13.99936 14.671543 14.224263 13.998986 14.50037 13.999819 C 14.776477 14.000651 14.999115 14.67121 14.999144 15.500209 Z M 14.999144 15.500209 " transform="matrix(1.828222,1.055556,-1.055556,1.828222,20.463,-10.287444)"/>
</g>
</svg>
