<?xml version="1.0" encoding="UTF-8"?>
<svg xmlns="http://www.w3.org/2000/svg" xmlns:xlink="http://www.w3.org/1999/xlink" width="95px" height="95px" viewBox="0 0 95 95" version="1.1">
<g id="surface1">
<path style="fill-rule:nonzero;fill:rgb(100%,100%,100%);fill-opacity:1;stroke-width:1.5;stroke-linecap:round;stroke-linejoin:miter;stroke:rgb(0%,0%,0%);stroke-opacity:1;stroke-miterlimit:4;" d="M 22.5 9 C 20.290707 9 18.499589 10.789268 18.499589 13.000411 C 18.499589 13.890419 18.79009 14.710115 19.280428 15.379934 C 17.330181 16.499383 15.999794 18.590255 15.999794 20.999383 C 15.999794 23.029194 16.939762 24.840666 18.410773 26.030428 C 15.409539 27.090666 11.000206 31.579564 11.000206 39.500822 L 33.999794 39.500822 C 33.999794 31.579564 29.590461 27.090666 26.589227 26.030428 C 28.060238 24.840666 29.000206 23.029194 29.000206 20.999383 C 29.000206 18.590255 27.669819 16.499383 25.719572 15.379934 C 26.20991 14.710115 26.500411 13.890419 26.500411 13.000411 C 26.500411 10.789268 24.709293 9 22.5 9 Z M 22.5 9 " transform="matrix(2.111111,0,0,2.111111,0,0)"/>
</g>
</svg>
