<?xml version="1.0" encoding="UTF-8"?>
<svg xmlns="http://www.w3.org/2000/svg" xmlns:xlink="http://www.w3.org/1999/xlink" width="95px" height="95px" viewBox="0 0 95 95" version="1.1">
<g id="surface1">
<path style="fill-rule:nonzero;fill:rgb(100%,100%,100%);fill-opacity:1;stroke-width:1.5;stroke-linecap:butt;stroke-linejoin:round;stroke:rgb(0%,0%,0%);stroke-opacity:1;stroke-miterlimit:4;" d="M 9 26.000822 C 17.500411 24.500206 29.999383 24.500206 36 26.000822 L 38.499794 13.5 L 31.000411 24.999794 L 30.700658 10.900288 L 25.499383 24.500206 L 22.5 9.999178 L 19.500617 24.500206 L 14.299342 10.900288 L 13.999589 24.999794 L 6.500206 13.5 Z M 9 26.000822 " transform="matrix(2.111111,0,0,2.111111,0,0)"/>
<path style="fill-rule:nonzero;fill:rgb(100%,100%,100%);fill-opacity:1;stroke-width:1.5;stroke-linecap:butt;stroke-linejoin:round;stroke:rgb(0%,0%,0%);stroke-opacity:1;stroke-miterlimit:4;" d="M 9 26.000822 C 9 27.999178 10.500617 27.999178 11.499794 29.999383 C 12.500822 31.5 12.500822 31.000411 11.999383 33.500206 C 10.500617 34.499383 11.000206 36 11.000206 36 C 9.499589 37.500617 11.000206 38.499794 11.000206 38.499794 C 17.500411 39.500822 27.499589 39.500822 33.999794 38.499794 C 33.999794 38.499794 35.500411 37.500617 33.999794 36 C 33.999794 36 34.499383 34.499383 33.000617 33.500206 C 32.499178 31.000411 32.499178 31.5 33.500206 29.999383 C 34.499383 27.999178 36 27.999178 36 26.000822 C 27.499589 24.500206 17.500411 24.500206 9 26.000822 Z M 9 26.000822 " transform="matrix(2.111111,0,0,2.111111,0,0)"/>
<path style="fill:none;stroke-width:1.5;stroke-linecap:butt;stroke-linejoin:round;stroke:rgb(0%,0%,0%);stroke-opacity:1;stroke-miterlimit:4;" d="M 11.499794 29.999383 C 15.000617 29.000206 29.999383 29.000206 33.500206 29.999383 " transform="matrix(2.111111,0,0,2.111111,0,0)"/>
<path style="fill:none;stroke-width:1.5;stroke-linecap:butt;stroke-linejoin:round;stroke:rgb(0%,0%,0%);stroke-opacity:1;stroke-miterlimit:4;" d="M 11.999383 33.500206 C 18 32.499178 27 32.499178 33.000617 33.500206 " transform="matrix(2.111111,0,0,2.111111,0,0)"/>
<path style="fill-rule:nonzero;fill:rgb(100%,100%,100%);fill-opacity:1;stroke-width:1.5;stroke-linecap:butt;stroke-linejoin:round;stroke:rgb(0%,0%,0%);stroke-opacity:1;stroke-miterlimit:4;" d="M 8.000822 11.999383 C 8.000822 13.10403 7.105263 13.999589 6.000617 13.999589 C 4.89597 13.999589 4.000411 13.10403 4.000411 11.999383 C 4.000411 10.894737 4.89597 9.999178 6.000617 9.999178 C 7.105263 9.999178 8.000822 10.894737 8.000822 11.999383 Z M 8.000822 11.999383 " transform="matrix(2.111111,0,0,2.111111,0,0)"/>
<path style="fill-rule:nonzero;fill:rgb(100%,100%,100%);fill-opacity:1;stroke-width:1.5;stroke-linecap:butt;stroke-linejoin:round;stroke:rgb(0%,0%,0%);stroke-opacity:1;stroke-miterlimit:4;" d="M 15.999794 9 C 15.999794 10.104646 15.104235 11.000206 13.999589 11.000206 C 12.894942 11.000206 11.999383 10.104646 11.999383 9 C 11.999383 7.895354 12.894942 6.999794 13.999589 6.999794 C 15.104235 6.999794 15.999794 7.895354 15.999794 9 Z M 15.999794 9 " transform="matrix(2.111111,0,0,2.111111,0,0)"/>
<path style="fill-rule:nonzero;fill:rgb(100%,100%,100%);fill-opacity:1;stroke-width:1.5;stroke-linecap:butt;stroke-linejoin:round;stroke:rgb(0%,0%,0%);stroke-opacity:1;stroke-miterlimit:4;" d="M 24.500206 8.000822 C 24.500206 9.105469 23.604646 9.999178 22.5 9.999178 C 21.395354 9.999178 20.499794 9.105469 20.499794 8.000822 C 20.499794 6.896176 21.395354 6.000617 22.5 6.000617 C 23.604646 6.000617 24.500206 6.896176 24.500206 8.000822 Z M 24.500206 8.000822 " transform="matrix(2.111111,0,0,2.111111,0,0)"/>
<path style="fill-rule:nonzero;fill:rgb(100%,100%,100%);fill-opacity:1;stroke-width:1.5;stroke-linecap:butt;stroke-linejoin:round;stroke:rgb(0%,0%,0%);stroke-opacity:1;stroke-miterlimit:4;" d="M 33.000617 9 C 33.000617 10.104646 32.105058 11.000206 31.000411 11.000206 C 29.895765 11.000206 29.000206 10.104646 29.000206 9 C 29.000206 7.895354 29.895765 6.999794 31.000411 6.999794 C 32.105058 6.999794 33.000617 7.895354 33.000617 9 Z M 33.000617 9 " transform="matrix(2.111111,0,0,2.111111,0,0)"/>
<path style="fill-rule:nonzero;fill:rgb(100%,100%,100%);fill-opacity:1;stroke-width:1.5;stroke-linecap:butt;stroke-linejoin:round;stroke:rgb(0%,0%,0%);stroke-opacity:1;stroke-miterlimit:4;" d="M 40.999589 11.999383 C 40.999589 13.10403 40.10403 13.999589 38.999383 13.999589 C 37.894737 13.999589 36.999178 13.10403 36.999178 11.999383 C 36.999178 10.894737 37.894737 9.999178 38.999383 9.999178 C 40.10403 9.999178 40.999589 10.894737 40.999589 11.999383 Z M 40.999589 11.999383 " transform="matrix(2.111111,0,0,2.111111,0,0)"/>
</g>
</svg>
