<?xml version="1.0" encoding="UTF-8"?>
<svg xmlns="http://www.w3.org/2000/svg" xmlns:xlink="http://www.w3.org/1999/xlink" width="95px" height="95px" viewBox="0 0 95 95" version="1.1">
<g id="surface1">
<path style="fill-rule:evenodd;fill:rgb(100%,100%,100%);fill-opacity:1;stroke-width:1.5;stroke-linecap:butt;stroke-linejoin:round;stroke:rgb(0%,0%,0%);stroke-opacity:1;stroke-miterlimit:4;" d="M 9 38.999137 L 36 38.999137 L 36 35.999753 L 9 35.999753 Z M 9 38.999137 " transform="matrix(2.111111,0,0,2.111111,0,0.633333)"/>
<path style="fill-rule:evenodd;fill:rgb(100%,100%,100%);fill-opacity:1;stroke-width:1.5;stroke-linecap:butt;stroke-linejoin:round;stroke:rgb(0%,0%,0%);stroke-opacity:1;stroke-miterlimit:4;" d="M 11.999383 35.999753 L 11.999383 31.999342 L 33.000617 31.999342 L 33.000617 35.999753 Z M 11.999383 35.999753 " transform="matrix(2.111111,0,0,2.111111,0,0.633333)"/>
<path style="fill-rule:evenodd;fill:rgb(100%,100%,100%);fill-opacity:1;stroke-width:1.5;stroke-linecap:butt;stroke-linejoin:round;stroke:rgb(0%,0%,0%);stroke-opacity:1;stroke-miterlimit:4;" d="M 11.000206 13.999342 L 11.000206 8.999753 L 15.000617 8.999753 L 15.000617 10.999959 L 20.000206 10.999959 L 20.000206 8.999753 L 24.999794 8.999753 L 24.999794 10.999959 L 29.999383 10.999959 L 29.999383 8.999753 L 33.999794 8.999753 L 33.999794 13.999342 " transform="matrix(2.111111,0,0,2.111111,0,0.633333)"/>
<path style="fill-rule:evenodd;fill:rgb(100%,100%,100%);fill-opacity:1;stroke-width:1.5;stroke-linecap:round;stroke-linejoin:round;stroke:rgb(0%,0%,0%);stroke-opacity:1;stroke-miterlimit:4;" d="M 33.999794 13.999342 L 31.000411 17.000576 L 13.999589 17.000576 L 11.000206 13.999342 " transform="matrix(2.111111,0,0,2.111111,0,0.633333)"/>
<path style="fill-rule:evenodd;fill:rgb(100%,100%,100%);fill-opacity:1;stroke-width:1.5;stroke-linecap:butt;stroke-linejoin:miter;stroke:rgb(0%,0%,0%);stroke-opacity:1;stroke-miterlimit:4;" d="M 31.000411 17.000576 L 31.000411 29.499548 L 13.999589 29.499548 L 13.999589 17.000576 " transform="matrix(2.111111,0,0,2.111111,0,0.633333)"/>
<path style="fill-rule:evenodd;fill:rgb(100%,100%,100%);fill-opacity:1;stroke-width:1.5;stroke-linecap:round;stroke-linejoin:round;stroke:rgb(0%,0%,0%);stroke-opacity:1;stroke-miterlimit:4;" d="M 31.000411 29.499548 L 32.499178 31.999342 L 12.500822 31.999342 L 13.999589 29.499548 " transform="matrix(2.111111,0,0,2.111111,0,0.633333)"/>
<path style="fill:none;stroke-width:1.5;stroke-linecap:round;stroke-linejoin:miter;stroke:rgb(0%,0%,0%);stroke-opacity:1;stroke-miterlimit:4;" d="M 11.000206 13.999342 L 33.999794 13.999342 " transform="matrix(2.111111,0,0,2.111111,0,0.633333)"/>
</g>
</svg>
